<mxfile host="app.diagrams.net" agent="Mozilla/5.0 (X11; Ubuntu; Linux x86_64; rv:139.0) Gecko/20100101 Firefox/139.0" version="27.1.4">
  <diagram name="Page-1" id="q7nlDnSmBXF5uVsEPn9I">
    <mxGraphModel dx="1356" dy="763" grid="1" gridSize="10" guides="1" tooltips="1" connect="1" arrows="1" fold="1" page="1" pageScale="1" pageWidth="850" pageHeight="1100" math="0" shadow="0">
      <root>
        <mxCell id="0" />
        <mxCell id="1" parent="0" />
        <mxCell id="ApBD_CIV5Xds5tjFbwub-19" value="" style="rounded=1;whiteSpace=wrap;html=1;dashed=1;" vertex="1" parent="1">
          <mxGeometry x="100" y="320" width="650" height="440" as="geometry" />
        </mxCell>
        <mxCell id="ApBD_CIV5Xds5tjFbwub-1" value="Client" style="rounded=1;whiteSpace=wrap;html=1;fillColor=#ffe6cc;strokeColor=#d79b00;" vertex="1" parent="1">
          <mxGeometry x="375" y="200" width="120" height="40" as="geometry" />
        </mxCell>
        <mxCell id="ApBD_CIV5Xds5tjFbwub-13" style="edgeStyle=orthogonalEdgeStyle;rounded=0;orthogonalLoop=1;jettySize=auto;html=1;exitX=0.25;exitY=1;exitDx=0;exitDy=0;entryX=0.25;entryY=0;entryDx=0;entryDy=0;" edge="1" parent="1" source="ApBD_CIV5Xds5tjFbwub-2" target="ApBD_CIV5Xds5tjFbwub-3">
          <mxGeometry relative="1" as="geometry" />
        </mxCell>
        <mxCell id="ApBD_CIV5Xds5tjFbwub-2" value="REQ" style="rounded=1;whiteSpace=wrap;html=1;fillColor=#f8cecc;strokeColor=#b85450;" vertex="1" parent="1">
          <mxGeometry x="375" y="240" width="120" height="40" as="geometry" />
        </mxCell>
        <mxCell id="ApBD_CIV5Xds5tjFbwub-14" style="edgeStyle=orthogonalEdgeStyle;rounded=0;orthogonalLoop=1;jettySize=auto;html=1;exitX=0.75;exitY=0;exitDx=0;exitDy=0;entryX=0.75;entryY=1;entryDx=0;entryDy=0;" edge="1" parent="1" source="ApBD_CIV5Xds5tjFbwub-3" target="ApBD_CIV5Xds5tjFbwub-2">
          <mxGeometry relative="1" as="geometry" />
        </mxCell>
        <mxCell id="ApBD_CIV5Xds5tjFbwub-3" value="ROUTER" style="rounded=1;whiteSpace=wrap;html=1;fillColor=#e1d5e7;strokeColor=#9673a6;" vertex="1" parent="1">
          <mxGeometry x="375" y="360" width="120" height="40" as="geometry" />
        </mxCell>
        <mxCell id="ApBD_CIV5Xds5tjFbwub-4" value="Server" style="rounded=1;whiteSpace=wrap;html=1;fillColor=#f5f5f5;fontColor=#333333;strokeColor=#666666;" vertex="1" parent="1">
          <mxGeometry x="375" y="400" width="120" height="40" as="geometry" />
        </mxCell>
        <mxCell id="ApBD_CIV5Xds5tjFbwub-5" value="Queue Proxy" style="rounded=1;whiteSpace=wrap;html=1;fillColor=#a20025;fontColor=#ffffff;strokeColor=#6F0000;" vertex="1" parent="1">
          <mxGeometry x="375" y="440" width="120" height="80" as="geometry" />
        </mxCell>
        <mxCell id="ApBD_CIV5Xds5tjFbwub-15" style="edgeStyle=orthogonalEdgeStyle;rounded=0;orthogonalLoop=1;jettySize=auto;html=1;exitX=0.5;exitY=1;exitDx=0;exitDy=0;entryX=0.5;entryY=0;entryDx=0;entryDy=0;" edge="1" parent="1" source="ApBD_CIV5Xds5tjFbwub-6" target="ApBD_CIV5Xds5tjFbwub-9">
          <mxGeometry relative="1" as="geometry" />
        </mxCell>
        <mxCell id="ApBD_CIV5Xds5tjFbwub-16" style="edgeStyle=orthogonalEdgeStyle;rounded=0;orthogonalLoop=1;jettySize=auto;html=1;exitX=0.5;exitY=1;exitDx=0;exitDy=0;entryX=0.5;entryY=0;entryDx=0;entryDy=0;" edge="1" parent="1" source="ApBD_CIV5Xds5tjFbwub-6" target="ApBD_CIV5Xds5tjFbwub-7">
          <mxGeometry relative="1" as="geometry" />
        </mxCell>
        <mxCell id="ApBD_CIV5Xds5tjFbwub-17" style="edgeStyle=orthogonalEdgeStyle;rounded=0;orthogonalLoop=1;jettySize=auto;html=1;exitX=0.5;exitY=1;exitDx=0;exitDy=0;entryX=0.5;entryY=0;entryDx=0;entryDy=0;" edge="1" parent="1" source="ApBD_CIV5Xds5tjFbwub-6" target="ApBD_CIV5Xds5tjFbwub-11">
          <mxGeometry relative="1" as="geometry" />
        </mxCell>
        <mxCell id="ApBD_CIV5Xds5tjFbwub-6" value="DEALER" style="rounded=1;whiteSpace=wrap;html=1;fillColor=#fff2cc;strokeColor=#d6b656;" vertex="1" parent="1">
          <mxGeometry x="375" y="520" width="120" height="40" as="geometry" />
        </mxCell>
        <mxCell id="ApBD_CIV5Xds5tjFbwub-7" value="REP" style="rounded=1;whiteSpace=wrap;html=1;fillColor=#dae8fc;strokeColor=#6c8ebf;" vertex="1" parent="1">
          <mxGeometry x="170" y="640" width="120" height="40" as="geometry" />
        </mxCell>
        <mxCell id="ApBD_CIV5Xds5tjFbwub-8" value="Worker" style="rounded=1;whiteSpace=wrap;html=1;fillColor=#d5e8d4;strokeColor=#82b366;" vertex="1" parent="1">
          <mxGeometry x="170" y="680" width="120" height="40" as="geometry" />
        </mxCell>
        <mxCell id="ApBD_CIV5Xds5tjFbwub-18" style="edgeStyle=orthogonalEdgeStyle;rounded=0;orthogonalLoop=1;jettySize=auto;html=1;exitX=0.5;exitY=0;exitDx=0;exitDy=0;entryX=0.5;entryY=1;entryDx=0;entryDy=0;" edge="1" parent="1" source="ApBD_CIV5Xds5tjFbwub-9" target="ApBD_CIV5Xds5tjFbwub-6">
          <mxGeometry relative="1" as="geometry" />
        </mxCell>
        <mxCell id="ApBD_CIV5Xds5tjFbwub-9" value="REP" style="rounded=1;whiteSpace=wrap;html=1;fillColor=#dae8fc;strokeColor=#6c8ebf;" vertex="1" parent="1">
          <mxGeometry x="375" y="640" width="120" height="40" as="geometry" />
        </mxCell>
        <mxCell id="ApBD_CIV5Xds5tjFbwub-10" value="Worker" style="rounded=1;whiteSpace=wrap;html=1;fillColor=#d5e8d4;strokeColor=#82b366;" vertex="1" parent="1">
          <mxGeometry x="375" y="680" width="120" height="40" as="geometry" />
        </mxCell>
        <mxCell id="ApBD_CIV5Xds5tjFbwub-11" value="REP" style="rounded=1;whiteSpace=wrap;html=1;fillColor=#dae8fc;strokeColor=#6c8ebf;" vertex="1" parent="1">
          <mxGeometry x="570" y="640" width="120" height="40" as="geometry" />
        </mxCell>
        <mxCell id="ApBD_CIV5Xds5tjFbwub-12" value="Worker" style="rounded=1;whiteSpace=wrap;html=1;fillColor=#d5e8d4;strokeColor=#82b366;" vertex="1" parent="1">
          <mxGeometry x="570" y="680" width="120" height="40" as="geometry" />
        </mxCell>
      </root>
    </mxGraphModel>
  </diagram>
</mxfile>
